<svg width="64" height="64" viewBox="0 0 64 64" fill="none" xmlns="http://www.w3.org/2000/svg">
<g clip-path="url(#clip0_203_3316)">
<path d="M8.95374 62C8.41282 62 7.87189 61.8718 7.3452 61.6014C5.80783 60.8612 4.83986 59.1672 4.86833 57.2882C4.8968 52.9893 5.55161 45.2455 9.52314 41.6725C11.1032 40.2491 13.0676 39.6512 15.3167 39.879C16.2847 39.9786 17.452 40.2206 18.6904 40.4626C22.5908 41.2597 27.4591 42.2419 30.6477 39.9786C32.4698 38.6832 33.5801 36.4626 34.0071 33.1886C34.0356 32.9323 34.0783 32.6476 34.121 32.3202C34.5196 29.4306 35.1317 25.0604 29.6797 22.0854C26.3488 20.2775 24.1566 18.0854 23.9431 4.71881C23.9431 4.54799 24 4.37717 24.0996 4.23482C25.879 1.75795 28.2705 1.30244 30.6762 2.99639C31.5018 3.58002 32.0142 4.54799 32.0285 5.58714C32.0996 10.8967 33.0961 14.8113 34.5765 15.5658C35.1459 15.8647 35.9146 15.6797 36.8399 15.0249L36.9822 14.9252C39.7438 12.975 44.3416 9.71525 50.121 12.9039C50.4911 13.1031 50.6477 13.5729 50.4626 13.9572L32.2989 53.8434C32.1281 54.2135 31.7295 54.3985 31.3452 54.2846C28.1424 53.3878 24.8114 51.7508 21.452 49.4021C20.1993 48.5338 17.8221 47.1957 16.0427 48.0925C14.1495 49.0462 13.0676 52.3202 12.911 57.5729C12.8683 59.3096 11.9715 60.8469 10.548 61.6014C10.0356 61.8576 9.5089 61.9857 8.98221 61.9857L8.95374 62ZM14.3915 41.459C12.9253 41.459 11.6868 41.9288 10.6192 42.8825C6.97509 46.1423 6.53381 54.0569 6.50534 57.3024C6.47687 58.5551 7.10321 59.6654 8.07118 60.1352C8.68328 60.4341 9.2242 60.4483 9.7936 60.1637C10.6619 59.7081 11.2456 58.669 11.274 57.5444C11.4591 51.4804 12.7829 47.9217 15.3025 46.6548C17.21 45.701 19.6584 46.185 22.3772 48.0782C25.3523 50.1565 28.2847 51.6512 31.1032 52.5338L48.6548 13.9999C44.0854 11.9074 40.3843 14.5124 37.9075 16.2633L37.7651 16.3629C36.2989 17.3878 34.9751 17.6156 33.8221 17.032C30.9466 15.5658 30.4342 9.25973 30.3915 5.62984C30.3915 5.11738 30.1352 4.61916 29.7224 4.33447C28.1139 3.19568 26.79 3.39496 25.5658 4.97504C25.8078 18.1281 27.9573 19.3096 30.4484 20.6619C36.8968 24.1779 36.1424 29.6156 35.7295 32.548C35.6868 32.8469 35.6441 33.1316 35.6157 33.3878C35.1174 37.0889 33.7651 39.7508 31.573 41.3024C27.815 43.9786 22.3488 42.8683 18.3488 42.0569C17.153 41.8149 16.0285 41.5871 15.1317 41.5017C14.8755 41.4733 14.6192 41.459 14.363 41.459H14.3915Z" fill="#344153"/>
<path d="M37.0534 55.0961C36.8826 55.0961 36.7117 55.0961 36.5409 55.0961C36.2705 55.0961 36.0142 54.9395 35.8719 54.7117C35.7295 54.484 35.7011 54.185 35.8149 53.9431L52.9253 16.3915C53.0391 16.1495 53.2527 15.9786 53.5231 15.9217C53.7794 15.879 54.0641 15.9644 54.2491 16.1495C60.1566 22.0996 60.6833 30.4128 55.8719 41.5587C55.5018 42.427 55.0605 43.3238 54.5338 44.1922C54.3061 44.5765 53.8078 44.7046 53.4235 44.4769C53.0391 44.2491 52.911 43.7509 53.1388 43.3665C53.6228 42.5552 54.0356 41.7295 54.3772 40.9324C59.9288 28.0783 57.0819 21.8007 53.9075 18.185L37.8221 53.4733C41.0819 53.331 44.1424 52.2349 46.9182 50.2562C47.274 50 47.7865 50.0712 48.0569 50.4413C48.3132 50.8114 48.2278 51.3096 47.8719 51.5801C44.5836 53.9288 40.9395 55.1245 37.0391 55.1245L37.0534 55.0961Z" fill="#344153"/>
<path d="M33.7794 55.4093C33.694 55.4093 33.6085 55.3951 33.5231 55.3524C33.21 55.21 33.0819 54.8541 33.2242 54.541L33.8932 53.0605C34.0356 52.7474 34.3915 52.6193 34.7046 52.7616C35.0178 52.904 35.1459 53.2598 35.0036 53.573L34.3345 55.0534C34.2349 55.2812 34.0071 55.4093 33.7794 55.4093ZM35.8149 50.9538C35.7295 50.9538 35.6441 50.9395 35.5587 50.8968C35.2456 50.7545 35.1174 50.3986 35.2598 50.0855L35.9288 48.605C36.0712 48.2919 36.427 48.1637 36.7402 48.3061C37.0534 48.4484 37.1815 48.8043 37.0391 49.1175L36.3701 50.5979C36.2705 50.8257 36.0427 50.9538 35.8149 50.9538ZM37.8363 46.5125C37.7509 46.5125 37.6655 46.4983 37.5801 46.4556C37.2669 46.3132 37.1388 45.9573 37.2811 45.6442L37.9502 44.1638C38.0925 43.8506 38.4484 43.7225 38.7616 43.8648C39.0747 44.0072 39.2029 44.363 39.0605 44.6762L38.3915 46.1566C38.2918 46.3844 38.0641 46.5125 37.8363 46.5125ZM39.8577 42.0712C39.7722 42.0712 39.6868 42.057 39.6014 42.0143C39.2883 41.8719 39.1601 41.5161 39.3025 41.2029L39.9715 39.7225C40.1139 39.4093 40.4698 39.2812 40.7829 39.4235C41.0961 39.5659 41.2242 39.9218 41.0819 40.2349L40.4128 41.7154C40.3132 41.9431 40.0854 42.0712 39.8577 42.0712ZM41.8932 37.6157C41.8078 37.6157 41.7224 37.6015 41.637 37.5588C41.3238 37.4164 41.1957 37.0605 41.3381 36.7474L42.0071 35.267C42.1495 34.9538 42.5053 34.8257 42.8185 34.968C43.1317 35.1104 43.2598 35.4662 43.1174 35.7794L42.4484 37.2598C42.3488 37.4876 42.121 37.6157 41.8932 37.6157ZM43.9146 33.1744C43.8292 33.1744 43.7438 33.1602 43.6584 33.1175C43.3452 32.9751 43.2171 32.6193 43.3594 32.3061L44.0285 30.8257C44.1708 30.5125 44.5267 30.3844 44.8399 30.5267C45.153 30.6691 45.2811 31.025 45.1388 31.3381L44.4698 32.8186C44.3701 33.0463 44.1424 33.1744 43.9146 33.1744ZM45.9359 28.7189C45.8505 28.7189 45.7651 28.7047 45.6797 28.662C45.3666 28.5196 45.2384 28.1638 45.3808 27.8506L46.0498 26.3702C46.1922 26.057 46.548 25.9289 46.8612 26.0712C47.1744 26.2136 47.3025 26.5694 47.1601 26.8826L46.4911 28.363C46.3915 28.5908 46.1637 28.7189 45.9359 28.7189ZM47.9573 24.2776C47.8719 24.2776 47.7865 24.2634 47.7011 24.2207C47.3879 24.0783 47.2598 23.7225 47.4021 23.4093L48.0712 21.9289C48.2135 21.6157 48.5694 21.4876 48.8826 21.6299C49.1957 21.7723 49.3238 22.1282 49.1815 22.4413L48.5125 23.9218C48.4128 24.1495 48.1851 24.2776 47.9573 24.2776ZM49.9929 19.8363C49.9075 19.8363 49.8221 19.8221 49.7367 19.7794C49.4235 19.6371 49.2954 19.2812 49.4377 18.968L50.1068 17.4876C50.2491 17.1744 50.605 17.0463 50.9181 17.1887C51.2313 17.331 51.3594 17.6869 51.2171 18L50.548 19.4805C50.4484 19.7082 50.2206 19.8363 49.9929 19.8363ZM52.0142 15.3808C51.9288 15.3808 51.8434 15.3666 51.758 15.3239C51.4448 15.1815 51.3167 14.8257 51.4591 14.5125L52.1281 13.0321C52.2705 12.7189 52.6263 12.5908 52.9395 12.7331C53.2527 12.8755 53.3808 13.2314 53.2384 13.5445L52.5694 15.025C52.4697 15.2527 52.242 15.3808 52.0142 15.3808Z" fill="#344153"/>
<path d="M50.8754 53.1744C47.7722 53.1744 45.2527 50.6548 45.2527 47.5516C45.2527 44.4484 47.7722 41.9288 50.8754 41.9288C53.9786 41.9288 56.4982 44.4484 56.4982 47.5516C56.4982 50.6548 53.9786 53.1744 50.8754 53.1744ZM50.8754 43.5374C48.669 43.5374 46.8754 45.331 46.8754 47.5374C46.8754 49.7438 48.669 51.5374 50.8754 51.5374C53.0818 51.5374 54.8754 49.7438 54.8754 47.5374C54.8754 45.331 53.0818 43.5374 50.8754 43.5374Z" fill="#344153"/>
<path d="M52.2989 49.4448C52.1708 49.4448 52.0427 49.4021 51.9431 49.3025L49.3665 46.726C49.1673 46.5267 49.1673 46.2135 49.3665 46.0142C49.5658 45.8149 49.879 45.8149 50.0783 46.0142L52.6548 48.5907C52.8541 48.79 52.8541 49.1032 52.6548 49.3025C52.5552 49.4021 52.427 49.4448 52.2989 49.4448Z" fill="#344153"/>
<path d="M49.7224 49.4448C49.5943 49.4448 49.4662 49.4021 49.3665 49.3025C49.1673 49.1032 49.1673 48.79 49.3665 48.5907L51.9431 46.0142C52.1423 45.8149 52.4555 45.8149 52.6548 46.0142C52.8541 46.2135 52.8541 46.5267 52.6548 46.726L50.0783 49.3025C49.9786 49.4021 49.8505 49.4448 49.7224 49.4448Z" fill="#344153"/>
<path fill-rule="evenodd" clip-rule="evenodd" d="M40.4982 51.2954L54.2349 21.4307C54.9609 23.0534 55.9288 25.7723 55.9288 29.2314C55.9288 34.7972 53.4804 38.7972 52.4128 40.3488C51.7011 40.2776 50.605 40.2776 49.3523 40.6904C46.9893 41.4734 45.7224 43.2527 45.3238 43.8648C44.9253 44.4912 44.2562 45.8008 44.1851 47.5517C44.1424 48.6193 44.3416 49.5018 44.5267 50.0997C44.1851 50.3844 43.6157 50.8114 42.79 51.0819C41.8078 51.4093 40.968 51.3524 40.4982 51.2954Z" fill="#11CAA9"/>
</g>
<defs>
<clipPath id="clip0_203_3316">
<rect width="54.2633" height="60" fill="white" transform="translate(4.86833 2)"/>
</clipPath>
</defs>
</svg>
