<svg width="151" height="143" viewBox="0 0 151 143" fill="none" xmlns="http://www.w3.org/2000/svg">
<path fill-rule="evenodd" clip-rule="evenodd" d="M87.1864 106.853C85.6456 108.012 84.1054 109.173 82.5692 110.338C80.5732 111.854 79.5317 111.583 77.5982 110.322C71.4902 106.342 65.9791 101.606 60.2232 97.1853C51.3024 90.3328 42.6088 83.2303 35.2797 74.5983C27.2209 65.107 22.9803 54.7671 27.4985 42.2818C29.0169 39.7542 30.3559 37.1187 32.4478 34.9653C41.7093 25.4317 57.4217 25.2324 68.036 34.1096C72.0558 37.4717 74.859 41.8196 78.0811 45.8218C79.647 47.7675 80.3956 47.9993 82.047 45.827C87.4919 38.662 92.9263 31.3832 102.277 28.7425C95.5549 28.9926 89.3429 30.914 83.7597 34.295C80.7805 36.099 79.5735 35.4564 77.6996 32.8863C68.9963 20.9568 57.1758 15.5581 42.5479 18.1526C40.9129 18.4423 39.333 18.8453 37.8127 19.3524C36.8001 19.6908 35.8128 20.0752 34.8546 20.503C33.8958 20.9315 32.9657 21.4036 32.0649 21.9168C21.7101 27.8198 15.3087 39.1782 15.3292 52.1096C15.3306 53.2342 15.3811 54.3705 15.4812 55.5164C15.4553 55.8477 15.4443 56.1757 15.4458 56.5017C15.453 58.1333 15.7802 59.7112 16.2235 61.2667C16.4003 61.8889 16.5963 62.5077 16.7973 63.125C20.5924 74.7754 28.5614 83.4568 37.2441 91.5742C50.0927 103.588 64.8111 113.246 78.5335 124.159C79.9885 125.316 80.7716 124.882 81.9778 123.955C88.4429 118.988 94.9972 114.138 101.468 109.181C103.584 107.559 105.706 105.943 107.815 104.313H90.564C89.4381 105.16 88.3119 106.006 87.1864 106.853ZM117.613 29.032C127.636 29.5944 132.337 41.9272 132.337 41.9272C133.233 29.489 121.598 23.2612 121.598 23.2612C124.495 21.6933 126.368 20.4568 129.303 18.8688C127.074 18.0491 125.315 16.811 122.992 18.0179C121.11 18.9959 119.076 19.7159 117.051 20.3707C116.253 20.6289 115.265 20.5468 114.419 20.3637C112.245 19.893 110.114 19.2168 107.938 18.7558C107.164 18.5918 106.309 18.8112 105.126 18.8757C105.634 19.6182 105.877 20.1941 106.302 20.5579C108.035 22.0408 109.861 23.4167 111.568 24.9264C112.079 25.3774 112.564 26.109 112.635 26.7583C112.873 28.9807 113.178 31.2469 112.978 33.4526C112.739 36.0799 114.253 36.9965 116.371 37.8926C116.904 34.4181 117.038 32.7772 117.613 29.032Z" fill="#D9F2EE"/>
<path d="M109.032 56.5639C112.307 56.5639 114.972 53.8994 114.972 50.625C114.972 47.351 112.307 44.6871 109.032 44.6871C105.757 44.6871 103.092 47.351 103.092 50.625C103.092 53.8994 105.757 56.5639 109.032 56.5639ZM109.032 46.6813C111.208 46.6813 112.976 48.4502 112.976 50.6251C112.976 52.8003 111.208 54.5698 109.032 54.5698C106.856 54.5698 105.087 52.8003 105.087 50.6251C105.087 48.4502 106.856 46.6813 109.032 46.6813Z" fill="#43BDAB"/>
<path d="M147.058 75.3489H141.121C143.314 74.4753 144.875 72.3405 144.875 69.8395C144.875 66.5655 142.21 63.9019 138.935 63.9019C136.075 63.9019 133.683 65.9309 133.12 68.624C132.871 68.4352 132.597 68.2378 132.271 68.0284C130.662 66.994 125.557 66.5207 124.55 66.4361C124.483 66.4313 124.421 66.452 124.357 66.4601L122.786 65.681L119.169 60.6873L119.022 60.5033C116.654 57.8121 112.531 57.7796 112.355 57.7796H106.16C103.304 57.7796 97.9017 59.2926 97.9017 65.0206V71.6285H93.4603C93.3563 69.7318 91.78 68.2215 89.8574 68.2215C87.8677 68.2215 86.248 69.84 86.248 71.8291L86.2664 75.3488H86.1225C85.5719 75.3488 85.125 75.7951 85.125 76.3457C85.125 76.8963 85.5719 77.3427 86.1225 77.3427H92.876V92.5577L92.5634 93.0017C92.0722 92.7827 91.528 92.661 90.9567 92.661C88.7744 92.661 86.9989 94.4359 86.9989 96.6176C86.9989 98.8 88.7744 100.575 90.9567 100.575C93.139 100.575 94.9144 98.7999 94.9144 96.6176C94.9144 95.7292 94.6201 94.9091 94.1235 94.2482L94.8712 93.1905V85.4253C94.8745 85.4253 94.8787 85.4253 94.882 85.4253H101.817L100.799 97.0433C100.786 97.1168 100.783 97.192 100.787 97.2672L100.813 97.5817C100.873 97.9321 100.981 98.2724 101.132 98.5906C101.571 99.5194 102.345 100.221 103.313 100.566C103.736 100.717 104.172 100.792 104.607 100.792C105.169 100.792 105.729 100.666 106.25 100.418C107.425 99.8639 108.228 98.769 108.413 97.4767C108.426 97.4307 108.436 97.383 108.442 97.3354L109.268 82.65H109.36L110.017 97.3062C110.018 97.3317 110.021 97.3571 110.024 97.3825C110.183 98.716 110.995 99.8509 112.195 100.416C113.121 100.858 114.164 100.912 115.131 100.568C116.1 100.223 116.876 99.5209 117.315 98.5932C117.47 98.2675 117.578 97.9244 117.635 97.5744C117.644 97.5214 117.648 97.4673 117.648 97.4138V97.2051C117.648 97.1353 117.641 97.0659 117.626 96.9978L116.956 85.4252H136.089V92.5575L135.776 93.0015C135.285 92.7825 134.741 92.6608 134.17 92.6608C131.987 92.6608 130.212 94.4357 130.212 96.6174C130.212 98.7998 131.987 100.575 134.17 100.575C136.352 100.575 138.127 98.7997 138.127 96.6174C138.127 95.729 137.833 94.909 137.337 94.248L138.084 93.1903V77.3428H147.058C147.609 77.3428 148.056 76.8964 148.056 76.3458C148.056 75.7952 147.609 75.3489 147.058 75.3489ZM135.179 74.4031C135.651 74.7916 136.171 75.1188 136.748 75.3489H134.319C134.699 74.9805 134.986 74.6482 135.179 74.4031ZM138.935 65.8957C141.11 65.8957 142.879 67.6648 142.879 69.8395C142.879 72.0144 141.11 73.7838 138.935 73.7838C136.758 73.7838 134.988 72.0143 134.988 69.8395C134.988 67.6648 136.758 65.8957 138.935 65.8957ZM132.934 71.1459C133.012 71.2542 133.118 71.3266 133.225 71.3927C133.368 71.9169 133.578 72.4107 133.851 72.8668C133.839 72.8831 133.82 72.8916 133.808 72.909C133.802 72.9204 133.066 74.0109 131.795 74.8268C131.356 75.1086 130.038 75.2779 128.499 75.3488H116.88L115.998 68.903L116.5 68.8717L118.095 71.048C118.208 71.2021 118.376 71.3202 118.561 71.3888L125.194 74.6655C125.247 74.6925 125.393 74.7413 125.451 74.7575C125.76 74.8457 126.083 74.8905 126.409 74.8905C126.413 74.8905 126.415 74.8905 126.419 74.8905C128.349 74.8905 129.922 73.3233 129.928 71.3893C129.928 70.5139 129.6 69.6993 129.022 69.056C130.017 69.2536 130.835 69.4764 131.193 69.7064C132.434 70.5029 132.914 71.1189 132.934 71.1459ZM90.9566 98.581C89.8746 98.581 88.994 97.7004 88.994 96.6178C88.994 95.5358 89.8746 94.6552 90.9566 94.6552C91.0962 94.6552 91.2325 94.6697 91.3645 94.698L90.843 95.4363C90.526 95.8859 90.6331 96.5081 91.0821 96.8262C91.5321 97.1426 92.1532 97.0371 92.4724 96.5865L92.8402 96.065C92.8922 96.2407 92.9193 96.4257 92.9193 96.6178C92.9193 97.7003 92.0386 98.581 90.9566 98.581ZM88.2615 75.3489L88.2431 71.8169C88.2495 70.9329 88.9712 70.2155 89.8573 70.2155C90.7478 70.2155 91.4716 70.9393 91.4716 71.8292V73.6227H97.9903C98.0651 74.0901 98.2068 74.6937 98.4674 75.3489H88.2615ZM94.8819 83.4316C94.8786 83.4316 94.8744 83.4316 94.8711 83.4316V77.3429H99.6608C100.119 77.8802 100.688 78.3876 101.414 78.8112L101.128 81.5501C101.099 81.8309 101.191 82.1112 101.379 82.3211C101.555 82.5158 101.8 82.6332 102.061 82.6489L101.993 83.4316H94.8819ZM115.653 97.3242C115.625 97.4643 115.577 97.6035 115.514 97.7381C115.302 98.1855 114.928 98.5232 114.463 98.6886C113.997 98.8546 113.497 98.8275 113.05 98.6146C112.472 98.3418 112.081 97.7933 112.011 97.2053C112.011 97.141 112.005 97.0764 111.992 97.0133L111.158 81.4613C111.067 80.9939 110.657 80.6563 110.18 80.6563H108.393C107.893 80.6563 107.471 81.027 107.404 81.523L106.483 96.9706C106.464 97.028 106.451 97.087 106.445 97.1469C106.368 97.7934 105.977 98.3419 105.396 98.6162C104.949 98.8288 104.448 98.8547 103.983 98.6882C103.518 98.5227 103.146 98.1857 102.934 97.7367C102.86 97.5809 102.807 97.4158 102.791 97.3514L102.785 97.2563L104.218 81.8153C104.266 81.5263 104.185 81.2316 103.995 81.0082C103.805 80.7853 103.528 80.6564 103.235 80.6564H103.227L104.863 64.9558C104.919 64.4082 104.522 63.9177 103.975 63.8609C103.415 63.7998 102.936 64.2012 102.879 64.7493L101.651 76.5337C99.9413 75.024 99.8979 72.813 99.8969 72.7069V65.0208C99.8969 59.8609 105.907 59.7749 106.16 59.7739H112.356C112.389 59.7739 115.745 59.7986 117.488 61.7771L121.282 67.0038C121.308 67.0401 121.39 67.131 121.421 67.1634C121.501 67.2484 121.596 67.3182 121.701 67.37L127.138 70.055L127.221 70.0998C127.667 70.38 127.933 70.8621 127.933 71.3863C127.931 72.2199 127.252 72.8968 126.417 72.8968C126.415 72.8968 126.413 72.8968 126.412 72.8968C126.286 72.8968 126.163 72.8822 125.994 72.8373L119.542 69.6492L115.189 63.7093C115.142 63.6444 115.087 63.5866 115.028 63.5363C114.817 63.3453 114.528 63.2431 114.222 63.2864C113.676 63.361 113.295 63.8641 113.369 64.4094L115.595 80.6565H115.563C115.263 80.6565 114.978 80.7923 114.789 81.026C114.599 81.2596 114.526 81.5664 114.589 81.8608L115.653 97.3105L115.653 97.3242ZM116.84 83.4316L116.795 82.6489C117.061 82.6336 117.312 82.5114 117.488 82.309C117.678 82.0916 117.764 81.8032 117.725 81.5181L117.154 77.3429H125.047C125.371 77.3581 126.066 77.3846 126.929 77.3846C127.463 77.3846 128.059 77.3726 128.667 77.3429H136.089V83.4316H116.84ZM134.17 98.581C133.088 98.581 132.207 97.7004 132.207 96.6178C132.207 95.5358 133.088 94.6552 134.17 94.6552C134.309 94.6552 134.446 94.6697 134.578 94.698L134.056 95.4363C133.739 95.8859 133.846 96.5081 134.295 96.8262C134.744 97.1426 135.366 97.0371 135.685 96.5865L136.053 96.065C136.105 96.2407 136.132 96.4257 136.132 96.6178C136.132 97.7003 135.252 98.581 134.17 98.581Z" fill="#43BDAB"/>
</svg>
